HIERARCHY
ROOT simHips
{
  OFFSET 80.8084 99.7899 46.2635
  CHANNELS 6 Xposition Yposition Zposition Zrotation Xrotation Yrotation
  JOINT simSpine
  {
    OFFSET -0.000355721 21.3001 -0.016921
    CHANNELS 3 Zrotation Xrotation Yrotation
    JOINT simLeftArm
    {
      OFFSET 13.5181 21.3012 0
      CHANNELS 3 Zrotation Xrotation Yrotation
      JOINT simLeftForeArm
      {
        OFFSET 24.5783 0 0
        CHANNELS 3 Zrotation Xrotation Yrotation
        JOINT simLeftHand
        {
          OFFSET 24.5783 0 0
          CHANNELS 3 Zrotation Xrotation Yrotation
          End Site
          {
            OFFSET 7.32568 1.52588e-05 0.0169305
          }
        }
      }
    }
    JOINT simHead
    {
      OFFSET 0 27.4458 -0.00489235
      CHANNELS 3 Zrotation Xrotation Yrotation
      End Site
      {
        OFFSET 0 0 0
      }
    }
    JOINT simRightArm
    {
      OFFSET -13.5174 21.3012 0
      CHANNELS 3 Zrotation Xrotation Yrotation
      JOINT simRightForeArm
      {
        OFFSET -24.5783 0 0
        CHANNELS 3 Zrotation Xrotation Yrotation
        JOINT simRightHand
        {
          OFFSET -24.5783 0 0
          CHANNELS 3 Zrotation Xrotation Yrotation
          End Site
          {
            OFFSET -7.32568 1.52588e-05 0.0169305
          }
        }
      }
    }
  }
  JOINT simRightUpLeg
  {
    OFFSET -8.44614 -9.41038 0.835684
    CHANNELS 3 Zrotation Xrotation Yrotation
    JOINT simRightLeg
    {
      OFFSET 0 -40.9639 0
      CHANNELS 3 Zrotation Xrotation Yrotation
      JOINT simRightFoot
      {
        OFFSET 0 -40.9639 0
        CHANNELS 3 Zrotation Xrotation Yrotation
        End Site
        {
          OFFSET 0.50614 -9.67405 14.6709
        }
      }
    }
  }
  JOINT simLeftUpLeg
  {
    OFFSET 8.44614 -9.41038 0.835684
    CHANNELS 3 Zrotation Xrotation Yrotation
    JOINT simLeftLeg
    {
      OFFSET 0 -40.9639 0
      CHANNELS 3 Zrotation Xrotation Yrotation
      JOINT simLeftFoot
      {
        OFFSET 0 -40.9639 0
        CHANNELS 3 Zrotation Xrotation Yrotation
        End Site
        {
          OFFSET -0.50614 -9.67405 14.6709
        }
      }
    }
  }
}
MOTION
Frames:	19
Frame Time:	0.0333333
-79.9616 85.971 63.7047 9.97243 13.9902 -146.525 -15.7401 15.0071 -7.52177 0.100419 28.6958 -109.877 25.172 -14.4488 -100.035 40.5204 15.4612 -6.0058 -24.6859 -9.3091 22.7865 69.076 5.24663 38.5607 -17.7531 -34.9563 116.253 -39.4591 -36.1749 -1.74775 -23.4532 -11.6324 -1.58531 7.62024 42.0912 -3.88126 13.4529 14.8367 -4.14767 35.2032 -20.9195 6.17795 -61.8055 65.3985 44.7272 13.1333 -32.2779 29.9291 
-86.7474 84.6212 68.102 12.4095 16.3969 -158.16 -15.0652 15.371 -2.96019 -6.2345 33.7166 -107.044 25.0632 -13.9159 -98.4024 34.2367 14.7912 -3.27451 -28.0226 6.79015 33.3018 70.5896 8.25646 34.3915 -18.257 -34.2498 113.923 -28.41 -33.2104 1.85935 -21.1278 -16.2895 -0.664641 9.19893 47.1471 -5.20379 14.3569 15.7041 -4.15334 30.1987 -17.1052 5.86403 -82.0388 67.5648 63.417 9.01332 -32.3604 19.473 
-93.5722 82.0063 72.1652 15.2932 18.0785 -169.038 -15.0424 16.056 1.56654 -6.90719 35.3091 -103.492 24.8332 -12.9809 -95.5182 30.7223 14.8376 -2.407 -28.602 21.744 42.7759 74.8949 5.72595 26.5778 -17.9881 -34.642 115.206 -24.6526 -31.8822 1.03404 -18.5221 -20.8518 0.893103 11.3503 52.5212 -7.08686 17.0048 13.5466 -8.51112 23.5719 -13.9967 7.36172 -94.4317 67.5394 75.1707 19.7744 -27.3831 16.3171 
-100.007 79.0722 75.6925 18.3761 17.8285 -178.881 -18.3265 16.5205 1.64914 -5.39005 35.169 -97.356 24.6297 -12.2876 -93.3596 24.0069 4.64987 -2.47386 -31.8782 21.3613 45.6267 74.8194 1.10486 19.628 -18.0372 -34.5739 114.981 -27.7235 -36.7515 -6.14322 -15.518 -19.3474 0.926881 6.63148 38.7296 -3.26579 10.6692 15.5513 -18.1412 19.1723 -13.3132 11.0011 -98.928 67.2953 79.5702 29.2455 -25.573 15.2536 
-106.368 75.6111 79.7394 22.2607 15.883 172.025 -21.5925 18.6725 0.362302 -3.17325 31.4269 -94.0691 24.3178 -11.3752 -90.484 24.5859 7.17477 -4.81077 -36.3859 3.69081 40.4964 69.0465 -5.34352 18.8968 -18.6143 -33.7152 112.211 -25.6915 -36.4868 -3.76617 -13.3393 -19.5407 1.00545 2.44337 26.0645 -0.653623 8.4808 20.3328 -10.7597 17.1812 -15.8388 15.6199 -102.441 67.0142 83.0681 38.7289 -23.8963 11.8265 
-113.017 71.1883 84.3254 27.5689 12.792 162.301 -23.2185 22.0821 0.200365 -4.03968 23.8293 -90.605 24.0076 -10.5898 -87.9698 23.8868 5.76224 -6.01685 -41.8001 -20.4498 27.7645 58.9373 -11.251 23.7935 -19.6434 -31.8464 106.525 -23.0058 -33.6551 0.232036 -9.84127 -26.9293 2.73274 2.52311 27.4073 -0.543433 16.2425 17.657 5.73482 20.27 -20.5094 22.1261 -110.318 66.0355 90.3922 42.2824 -24.6086 6.88539 
-120.454 65.4147 89.1469 33.0912 9.34692 152.607 -23.5631 26.7361 3.31402 -11.0344 16.9831 -86.135 23.9067 -10.3541 -87.2067 18.8567 5.43191 -7.73055 -51.0807 -43.555 6.83967 40.8702 -16.8366 25.4453 -20.8464 -28.5197 97.2326 -19.3223 -31.6842 2.68101 -8.807 -35.7318 -0.729757 5.00167 35.2866 -2.08618 16.2077 14.376 -1.04408 26.9772 -26.4294 30.7086 -120.105 64.0496 99.0972 36.8812 -25.9278 1.104 
-128.227 58.4172 93.4761 37.6272 6.14775 147.869 -20.8195 31.1531 6.85486 -18.2533 14.0558 -79.8368 23.8359 -10.1938 -86.6853 22.8159 4.09468 -9.13476 -51.3846 -48.2621 0.0823399 14.622 -20.2537 14.8272 -21.4583 -23.3944 84.0959 -13.4034 -27.5356 5.86569 -13.876 -44.1918 -3.06975 10.2168 49.9041 -6.2987 13.7694 11.2167 -8.85378 33.0492 -34.156 38.2759 -124.926 62.6746 103.11 25.7907 -24.6886 -4.61333 
-136.004 50.7751 97.012 42.1091 2.14521 146.094 -14.2491 33.0498 7.73273 -26.0779 13.4716 -65.6413 23.8519 -10.2299 -86.8029 24.4183 -2.54645 -6.64005 -38.1958 -34.4794 10.3091 -10.6646 -14.4256 4.4593 -20.2703 -16.404 66.7856 -13.9795 -30.5943 5.56134 -24.0478 -51.6455 -7.09561 23.5173 68.0913 -18.5922 13.0906 10.4394 2.59967 44.9865 -39.968 49.097 -121.607 63.6666 99.3627 -18.4351 -10.5202 -18.7858 
-142.902 42.3351 99.9362 47.3041 -2.56933 143.907 -8.3822 33.2191 6.48123 -33.2904 10.8511 -45.2302 23.4957 -9.47133 -84.3101 25.4067 -0.354534 -5.40892 -22.0185 -17.1523 14.21 -24.3808 -9.10441 5.32979 -16.3363 -9.07296 46.9091 -7.93447 -31.9169 7.19092 -34.8419 -56.4782 -11.3987 82.0544 80.0498 -76.0123 12.8913 11.7227 6.92005 51.8889 -40.651 61.795 -103.779 66.9143 82.967 -27.7579 -1.67813 -16.4168 
-149.209 33.5627 102.456 53.0454 -7.14724 141.713 -5.05025 33.3242 4.35512 -38.6097 5.85278 -25.3602 22.4263 -7.58766 -77.8637 25.7777 6.97543 -5.1873 -5.63916 -2.91863 9.65675 -24.6788 -11.5979 8.50592 -13.3946 -5.91888 36.5786 -8.38388 -31.5966 5.49971 -40.3277 -57.6205 -7.28291 146.927 70.8287 -139.541 10.5083 16.6906 10.1166 56.5884 -40.2009 73.6934 -91.7857 67.6745 71.988 -21.5562 -3.45114 -13.9772 
-155.614 24.0967 105.084 61.3457 -9.06879 141.659 -1.87209 37.6862 3.38879 -47.6732 -1.03488 -16.6859 19.363 -3.91798 -63.5534 29.8094 12.872 -5.65567 7.03662 5.45665 -0.352223 -16.2992 -18.0705 3.44932 -15.3153 -7.86502 43.161 -8.4806 -33.569 5.3603 -35.2379 -52.1876 10.7544 160.043 59.0144 -151.255 5.10853 29.0514 20.9978 56.7022 -48.0397 74.918 -78.8923 67.4753 59.9463 -21.0681 -1.7847 2.90509 
-161.831 14.117 107.558 75.5151 -7.55955 139.225 0.216155 47.5585 7.14593 -56.8062 -6.95164 -14.9141 22.253 -7.32556 -76.9308 16.8351 43.3971 11.5347 11.8454 10.7834 -6.3747 -6.65918 -23.1672 -1.52197 -17.8869 -11.3031 53.3663 -6.67925 -35.5366 3.906 -21.2591 -40.3792 34.0385 163.692 52.5891 -153.89 5.03604 40.4392 16.7939 49.7168 -46.818 63.8451 -62.0078 65.4995 44.298 -23.7735 6.5553 -7.9704 
-167.012 9.66204 109.935 92.5237 -5.94258 135.103 -7.2563 52.5474 14.521 -68.7354 -1.91581 -18.992 23.0888 -8.70343 -81.7317 32.4255 18.1566 1.72884 12.7292 28.1344 -2.51126 17.5984 -16.1934 3.57138 -20.1837 -16.1404 66.1204 -6.11298 -37.3442 2.79866 -7.63459 -19.1208 41.5322 165.796 47.3855 -155.367 1.6029 30.7093 11.5687 43.7567 -39.803 41.9068 -47.0756 61.4496 30.8125 -20.8913 15.1957 -11.1672 
-170.947 9.28487 109.894 100.869 -10.7274 134.253 -6.05554 40.6714 7.02278 -61.141 11.3502 -18.9083 21.7604 -6.54912 -74.0932 28.1762 18.7331 -1.17552 -7.05066 48.9431 17.9026 43.1318 6.03909 4.98909 -20.9475 -18.8559 72.8954 -0.511795 -33.7684 8.37046 -11.6119 -11.2319 31.2546 164.813 49.4631 -154.661 23.6047 9.63487 -2.08303 40.7313 -38.6149 29.204 -36.0464 56.1208 21.0605 -22.1705 18.2843 1.01102 
-174.856 8.93711 109.852 106.055 -15.5292 131.216 -6.07781 28.7717 5.5823 -61.8226 15.9454 -20.1871 19.3613 -3.9221 -63.5728 15.5791 28.2638 7.05276 -12.754 43.9224 21.5323 55.6681 18.4302 -9.39084 -21.3254 -21.1537 78.557 1.12993 -32.9884 6.33567 -13.479 -13.8499 26.659 163.537 52.4557 -153.854 21.2149 10.6427 -0.514649 38.5153 -35.6931 25.1069 -27.8342 49.9188 14.1927 -21.4658 12.0021 5.78475 
-178.634 9.21714 110.764 111.376 -19.2922 127.826 -5.93841 26.6034 -0.563921 -63.0178 6.55215 -12.2271 19.8003 -4.33998 -65.3761 17.44 11.6432 9.30877 -13.7115 21.4429 24.4253 60.4332 19.4793 -18.9355 -21.3412 -25.7882 90.1134 9.02217 -33.1536 10.0038 -16.3914 -17.6921 22.6387 161.84 55.7349 -152.961 1.29657 5.45414 7.60217 37.6014 -32.2166 23.9035 -22.2311 44.0044 9.98732 -17.0722 11.8098 -1.66377 
-182.448 9.98699 111.872 112.351 -22.1916 120.572 -8.88369 25.9891 -9.89757 -56.6911 -9.6237 -3.48069 20.206 -4.75627 -67.1172 18.9758 11.6003 5.54768 -10.5584 1.99597 26.5827 55.9586 12.7669 -20.3503 -20.513 -29.6666 100.341 10.36 -32.2741 11.4348 -20.2414 -25.0152 20.3956 160.43 58.0584 -151.928 0.343872 3.20232 3.18453 37.4608 -30.0701 29.689 -18.2559 38.7074 7.0833 -21.4151 16.201 -3.86828 
-186.412 10.1726 113.161 115.863 -25.5634 115.653 -8.96991 24.4578 -11.373 -48.8761 -13.6644 3.98036 20.2827 -4.83763 -67.4517 17.7891 8.18701 5.90535 -2.84751 2.1891 15.6541 51.0698 1.21841 -19.8746 -20.7795 -28.7737 97.9138 6.58615 -34.7264 5.79587 -20.9955 -28.0825 18.5014 159.203 59.9301 -150.874 2.03646 6.2836 2.59441 38.8159 -28.2981 31.3527 -16.3673 35.7504 5.81837 -21.4493 14.1243 -4.28482 
